<svg width="209" height="124" viewBox="0 0 209 124" fill="none" xmlns="http://www.w3.org/2000/svg">
<path d="M21.48 30.6C19.3 30.6 17.39 30.07 15.75 29.01C14.11 27.95 12.84 26.47 11.94 24.57C11.06 22.67 10.62 20.48 10.62 18C10.62 15.52 11.07 13.33 11.97 11.43C12.89 9.51 14.18 8.03 15.84 6.99C17.52 5.93 19.45 5.4 21.63 5.4C22.49 5.4 23.36 5.55 24.24 5.85C25.14 6.15 25.95 6.57 26.67 7.11L28.68 5.4H29.31V12.84H28.68L26.82 8.19C26.12 7.55 25.3 7.04 24.36 6.66C23.44 6.28 22.53 6.09 21.63 6.09C20.23 6.09 18.99 6.45 17.91 7.17C16.85 7.89 16.02 8.94 15.42 10.32C14.82 11.7 14.52 13.34 14.52 15.24V20.73C14.52 22.63 14.81 24.27 15.39 25.65C15.97 27.03 16.78 28.09 17.82 28.83C18.86 29.55 20.08 29.91 21.48 29.91C22.5 29.91 23.52 29.69 24.54 29.25C25.56 28.79 26.41 28.18 27.09 27.42L28.83 22.59H29.46V30.3H28.83L26.67 28.77C25.95 29.35 25.13 29.8 24.21 30.12C23.29 30.44 22.38 30.6 21.48 30.6ZM37.1135 30.3C35.8335 30.3 34.7835 29.97 33.9635 29.31C33.1435 28.63 32.7335 27.63 32.7335 26.31C32.7335 24.43 33.5235 23.1 35.1035 22.32C36.6835 21.52 38.5135 21.12 40.5935 21.12H42.6035V18.81C42.6035 17.77 42.4835 16.97 42.2435 16.41C42.0235 15.83 41.6735 15.43 41.1935 15.21C40.7135 14.97 40.0635 14.85 39.2435 14.85C38.3035 14.85 37.6035 15.04 37.1435 15.42C36.6835 15.78 36.4535 16.27 36.4535 16.89C36.4535 17.47 36.7335 17.85 37.2935 18.03C37.2935 18.53 37.1035 18.97 36.7235 19.35C36.3435 19.73 35.8935 19.92 35.3735 19.92C34.8135 19.92 34.3635 19.77 34.0235 19.47C33.6835 19.15 33.5135 18.67 33.5135 18.03C33.5135 16.87 34.0935 15.94 35.2535 15.24C36.4135 14.54 37.8635 14.19 39.6035 14.19C43.6035 14.19 45.6035 15.93 45.6035 19.41V27.99C45.6035 28.43 45.6935 28.77 45.8735 29.01C46.0735 29.23 46.3535 29.34 46.7135 29.34C47.0535 29.34 47.3235 29.23 47.5235 29.01C47.7235 28.77 47.8235 28.45 47.8235 28.05H48.4535C48.4535 28.75 48.2235 29.3 47.7635 29.7C47.3235 30.1 46.7035 30.3 45.9035 30.3C44.9835 30.3 44.2035 30.04 43.5635 29.52C42.9435 28.98 42.6235 28.15 42.6035 27.03C42.1235 28.05 41.3835 28.85 40.3835 29.43C39.4035 30.01 38.3135 30.3 37.1135 30.3ZM38.7635 28.98C39.3035 28.98 39.8535 28.82 40.4135 28.5C40.9935 28.18 41.4835 27.72 41.8835 27.12C42.2835 26.5 42.5235 25.76 42.6035 24.9V21.78H40.5935C38.9535 21.78 37.7235 22.15 36.9035 22.89C36.1035 23.61 35.7035 24.63 35.7035 25.95C35.7035 27.05 35.9635 27.83 36.4835 28.29C37.0035 28.75 37.7635 28.98 38.7635 28.98ZM49.185 29.4L51.285 29.1V15.36L49.185 15.06V14.46H54.285V16.77C55.545 15.05 56.965 14.19 58.545 14.19C59.305 14.19 59.975 14.39 60.555 14.79C61.135 15.17 61.425 15.72 61.425 16.44C61.425 16.96 61.255 17.4 60.915 17.76C60.575 18.1 60.125 18.27 59.565 18.27C58.925 18.27 58.405 18.02 58.005 17.52C58.225 17.24 58.335 16.94 58.335 16.62C58.335 16.28 58.215 16.01 57.975 15.81C57.755 15.59 57.455 15.48 57.075 15.48C56.655 15.48 56.225 15.68 55.785 16.08C55.345 16.46 54.845 17.06 54.285 17.88V29.1L56.685 29.4V30H49.185V29.4ZM70.5635 30.3C69.0835 30.3 67.7435 29.97 66.5435 29.31C65.3435 28.63 64.3935 27.68 63.6935 26.46C62.9935 25.24 62.6435 23.83 62.6435 22.23C62.6435 20.63 62.9835 19.23 63.6635 18.03C64.3635 16.81 65.2935 15.87 66.4535 15.21C67.6335 14.53 68.9435 14.19 70.3835 14.19C71.6435 14.19 72.7735 14.47 73.7735 15.03C74.7735 15.59 75.5535 16.37 76.1135 17.37C76.6735 18.35 76.9635 19.48 76.9835 20.76H65.9435V23.73C65.9435 25.49 66.3335 26.92 67.1135 28.02C67.9135 29.1 69.0635 29.64 70.5635 29.64C71.9435 29.64 73.1635 29.25 74.2235 28.47C75.2835 27.69 75.9335 26.68 76.1735 25.44H76.8635C76.5835 26.92 75.8735 28.1 74.7335 28.98C73.5935 29.86 72.2035 30.3 70.5635 30.3ZM73.6835 20.01C73.6835 18.27 73.4135 16.98 72.8735 16.14C72.3335 15.28 71.4935 14.85 70.3535 14.85C69.0135 14.85 67.9735 15.32 67.2335 16.26C66.4935 17.2 66.0735 18.45 65.9735 20.01H73.6835ZM87.3799 30.3C85.8999 30.3 84.5599 29.97 83.3599 29.31C82.1599 28.63 81.2099 27.68 80.5099 26.46C79.8099 25.24 79.4599 23.83 79.4599 22.23C79.4599 20.63 79.7999 19.23 80.4799 18.03C81.1799 16.81 82.1099 15.87 83.2699 15.21C84.4499 14.53 85.7599 14.19 87.1999 14.19C88.4599 14.19 89.5899 14.47 90.5899 15.03C91.5899 15.59 92.3699 16.37 92.9299 17.37C93.4899 18.35 93.7799 19.48 93.7999 20.76H82.7599V23.73C82.7599 25.49 83.1499 26.92 83.9299 28.02C84.7299 29.1 85.8799 29.64 87.3799 29.64C88.7599 29.64 89.9799 29.25 91.0399 28.47C92.0999 27.69 92.7499 26.68 92.9899 25.44H93.6799C93.3999 26.92 92.6899 28.1 91.5499 28.98C90.4099 29.86 89.0199 30.3 87.3799 30.3ZM90.4999 20.01C90.4999 18.27 90.2299 16.98 89.6899 16.14C89.1499 15.28 88.3099 14.85 87.1699 14.85C85.8299 14.85 84.7899 15.32 84.0499 16.26C83.3099 17.2 82.8899 18.45 82.7899 20.01H90.4999ZM95.7963 29.4L97.8963 29.1V15.36L95.7963 15.06V14.46H100.896V16.77C102.156 15.05 103.576 14.19 105.156 14.19C105.916 14.19 106.586 14.39 107.166 14.79C107.746 15.17 108.036 15.72 108.036 16.44C108.036 16.96 107.866 17.4 107.526 17.76C107.186 18.1 106.736 18.27 106.176 18.27C105.536 18.27 105.016 18.02 104.616 17.52C104.836 17.24 104.946 16.94 104.946 16.62C104.946 16.28 104.826 16.01 104.586 15.81C104.366 15.59 104.066 15.48 103.686 15.48C103.266 15.48 102.836 15.68 102.396 16.08C101.956 16.46 101.456 17.06 100.896 17.88V29.1L103.296 29.4V30H95.7963V29.4ZM8.16 71V70.37L11.1 69.17L19.77 46.4H20.25L28.44 69.92L31.2 70.37V71H22.38V70.37L24.84 69.98L22.29 62.87H14.31L11.88 69.17L14.58 70.37V71H8.16ZM14.55 62.24H22.08L18.48 51.68L14.55 62.24ZM38.1143 71.3C36.6943 71.3 35.4443 70.97 34.3643 70.31C33.2843 69.63 32.4443 68.69 31.8443 67.49C31.2443 66.27 30.9443 64.85 30.9443 63.23C30.9443 61.61 31.2443 60.2 31.8443 59C32.4443 57.78 33.2843 56.84 34.3643 56.18C35.4443 55.52 36.6943 55.19 38.1143 55.19C39.2743 55.19 40.2843 55.5 41.1443 56.12C42.0043 56.72 42.6843 57.55 43.1843 58.61V47.9L41.0843 47.6V47H46.1843V70.1L48.2843 70.4V71H43.1843V67.88C42.6843 68.94 42.0043 69.78 41.1443 70.4C40.2843 71 39.2743 71.3 38.1143 71.3ZM38.4143 70.55C39.2943 70.55 40.0843 70.3 40.7843 69.8C41.5043 69.28 42.0743 68.6 42.4943 67.76C42.9343 66.9 43.1643 65.97 43.1843 64.97V61.52C43.1643 60.52 42.9343 59.6 42.4943 58.76C42.0743 57.9 41.5043 57.22 40.7843 56.72C40.0843 56.2 39.2943 55.94 38.4143 55.94C35.6343 55.94 34.2443 57.87 34.2443 61.73V64.73C34.2443 68.61 35.6343 70.55 38.4143 70.55ZM56.8523 71.6L50.4323 56.36L48.4823 56.06V55.46H55.9523V56.06L53.7923 56.45L58.3223 67.73L62.3723 56.84L59.7323 56.09V55.49H65.1023V56.09L63.2123 56.81L57.6923 71.6H56.8523ZM70.2776 71.3C68.9976 71.3 67.9476 70.97 67.1276 70.31C66.3076 69.63 65.8976 68.63 65.8976 67.31C65.8976 65.43 66.6876 64.1 68.2676 63.32C69.8476 62.52 71.6776 62.12 73.7576 62.12H75.7676V59.81C75.7676 58.77 75.6476 57.97 75.4076 57.41C75.1876 56.83 74.8376 56.43 74.3576 56.21C73.8776 55.97 73.2276 55.85 72.4076 55.85C71.4676 55.85 70.7676 56.04 70.3076 56.42C69.8476 56.78 69.6176 57.27 69.6176 57.89C69.6176 58.47 69.8976 58.85 70.4576 59.03C70.4576 59.53 70.2676 59.97 69.8876 60.35C69.5076 60.73 69.0576 60.92 68.5376 60.92C67.9776 60.92 67.5276 60.77 67.1876 60.47C66.8476 60.15 66.6776 59.67 66.6776 59.03C66.6776 57.87 67.2576 56.94 68.4176 56.24C69.5776 55.54 71.0276 55.19 72.7676 55.19C76.7676 55.19 78.7676 56.93 78.7676 60.41V68.99C78.7676 69.43 78.8576 69.77 79.0376 70.01C79.2376 70.23 79.5176 70.34 79.8776 70.34C80.2176 70.34 80.4876 70.23 80.6876 70.01C80.8876 69.77 80.9876 69.45 80.9876 69.05H81.6176C81.6176 69.75 81.3876 70.3 80.9276 70.7C80.4876 71.1 79.8676 71.3 79.0676 71.3C78.1476 71.3 77.3676 71.04 76.7276 70.52C76.1076 69.98 75.7876 69.15 75.7676 68.03C75.2876 69.05 74.5476 69.85 73.5476 70.43C72.5676 71.01 71.4776 71.3 70.2776 71.3ZM71.9276 69.98C72.4676 69.98 73.0176 69.82 73.5776 69.5C74.1576 69.18 74.6476 68.72 75.0476 68.12C75.4476 67.5 75.6876 66.76 75.7676 65.9V62.78H73.7576C72.1176 62.78 70.8876 63.15 70.0676 63.89C69.2676 64.61 68.8676 65.63 68.8676 66.95C68.8676 68.05 69.1276 68.83 69.6476 69.29C70.1676 69.75 70.9276 69.98 71.9276 69.98ZM82.3491 70.4L84.4491 70.1V56.36L82.3491 56.06V55.46H87.4491V58.7C88.1891 57.62 89.0591 56.77 90.0591 56.15C91.0591 55.51 92.1391 55.19 93.2991 55.19C94.7391 55.19 95.8691 55.55 96.6891 56.27C97.5291 56.99 97.9491 58.06 97.9491 59.48V70.1L100.049 70.4V71H93.1491V70.4L94.9491 70.1V59.54C94.9491 58.5 94.7391 57.7 94.3191 57.14C93.8991 56.56 93.2491 56.27 92.3691 56.27C91.4491 56.27 90.5591 56.61 89.6991 57.29C88.8591 57.95 88.1091 58.77 87.4491 59.75V70.1L89.2491 70.4V71H82.3491V70.4ZM109.642 71.3C108.202 71.3 106.892 70.97 105.712 70.31C104.532 69.63 103.592 68.68 102.892 67.46C102.212 66.22 101.872 64.81 101.872 63.23C101.872 61.57 102.232 60.13 102.952 58.91C103.692 57.69 104.652 56.77 105.832 56.15C107.012 55.51 108.282 55.19 109.642 55.19C110.782 55.19 111.822 55.39 112.762 55.79C113.702 56.17 114.442 56.71 114.982 57.41C115.542 58.11 115.822 58.9 115.822 59.78C115.822 60.44 115.652 60.95 115.312 61.31C114.972 61.65 114.522 61.82 113.962 61.82C113.422 61.82 112.972 61.64 112.612 61.28C112.252 60.92 112.072 60.47 112.072 59.93C112.372 59.73 112.582 59.51 112.702 59.27C112.822 59.03 112.882 58.73 112.882 58.37C112.882 57.63 112.582 57.03 111.982 56.57C111.402 56.09 110.622 55.85 109.642 55.85C108.202 55.85 107.092 56.37 106.312 57.41C105.552 58.43 105.172 59.87 105.172 61.73V64.73C105.172 66.51 105.542 67.94 106.282 69.02C107.042 70.1 108.162 70.64 109.642 70.64C111.002 70.64 112.182 70.26 113.182 69.5C114.202 68.72 114.832 67.7 115.072 66.44H115.762C115.482 67.92 114.782 69.1 113.662 69.98C112.562 70.86 111.222 71.3 109.642 71.3ZM126.198 71.3C124.718 71.3 123.378 70.97 122.178 70.31C120.978 69.63 120.028 68.68 119.328 67.46C118.628 66.24 118.278 64.83 118.278 63.23C118.278 61.63 118.618 60.23 119.298 59.03C119.998 57.81 120.928 56.87 122.088 56.21C123.268 55.53 124.578 55.19 126.018 55.19C127.278 55.19 128.408 55.47 129.408 56.03C130.408 56.59 131.188 57.37 131.748 58.37C132.308 59.35 132.598 60.48 132.618 61.76H121.578V64.73C121.578 66.49 121.968 67.92 122.748 69.02C123.548 70.1 124.698 70.64 126.198 70.64C127.578 70.64 128.798 70.25 129.858 69.47C130.918 68.69 131.568 67.68 131.808 66.44H132.498C132.218 67.92 131.508 69.1 130.368 69.98C129.228 70.86 127.838 71.3 126.198 71.3ZM129.318 61.01C129.318 59.27 129.048 57.98 128.508 57.14C127.968 56.28 127.128 55.85 125.988 55.85C124.648 55.85 123.608 56.32 122.868 57.26C122.128 58.2 121.708 59.45 121.608 61.01H129.318ZM134.615 70.4L136.715 70.1V56.36L134.615 56.06V55.46H139.715V58.22C140.435 57.28 141.245 56.54 142.145 56C143.065 55.46 144.055 55.19 145.115 55.19C146.335 55.19 147.325 55.46 148.085 56C148.865 56.52 149.355 57.31 149.555 58.37C150.275 57.39 151.095 56.62 152.015 56.06C152.935 55.48 153.945 55.19 155.045 55.19C156.465 55.19 157.565 55.55 158.345 56.27C159.145 56.97 159.545 58.04 159.545 59.48V70.1L161.645 70.4V71H154.745V70.4L156.545 70.1V59.54C156.545 58.48 156.355 57.67 155.975 57.11C155.595 56.55 154.975 56.27 154.115 56.27C153.295 56.27 152.495 56.55 151.715 57.11C150.955 57.67 150.265 58.39 149.645 59.27V70.1L151.445 70.4V71H144.815V70.4L146.615 70.1V59.54C146.615 58.48 146.425 57.67 146.045 57.11C145.665 56.55 145.045 56.27 144.185 56.27C143.365 56.27 142.565 56.55 141.785 57.11C141.025 57.67 140.335 58.39 139.715 59.27V70.1L141.515 70.4V71H134.615V70.4ZM171.403 71.3C169.923 71.3 168.583 70.97 167.383 70.31C166.183 69.63 165.233 68.68 164.533 67.46C163.833 66.24 163.483 64.83 163.483 63.23C163.483 61.63 163.823 60.23 164.503 59.03C165.203 57.81 166.133 56.87 167.293 56.21C168.473 55.53 169.783 55.19 171.223 55.19C172.483 55.19 173.613 55.47 174.613 56.03C175.613 56.59 176.393 57.37 176.953 58.37C177.513 59.35 177.803 60.48 177.823 61.76H166.783V64.73C166.783 66.49 167.173 67.92 167.953 69.02C168.753 70.1 169.903 70.64 171.403 70.64C172.783 70.64 174.003 70.25 175.063 69.47C176.123 68.69 176.773 67.68 177.013 66.44H177.703C177.423 67.92 176.713 69.1 175.573 69.98C174.433 70.86 173.043 71.3 171.403 71.3ZM174.523 61.01C174.523 59.27 174.253 57.98 173.713 57.14C173.173 56.28 172.333 55.85 171.193 55.85C169.853 55.85 168.813 56.32 168.073 57.26C167.333 58.2 166.913 59.45 166.813 61.01H174.523ZM179.82 70.4L181.92 70.1V56.36L179.82 56.06V55.46H184.92V58.7C185.66 57.62 186.53 56.77 187.53 56.15C188.53 55.51 189.61 55.19 190.77 55.19C192.21 55.19 193.34 55.55 194.16 56.27C195 56.99 195.42 58.06 195.42 59.48V70.1L197.52 70.4V71H190.62V70.4L192.42 70.1V59.54C192.42 58.5 192.21 57.7 191.79 57.14C191.37 56.56 190.72 56.27 189.84 56.27C188.92 56.27 188.03 56.61 187.17 57.29C186.33 57.95 185.58 58.77 184.92 59.75V70.1L186.72 70.4V71H179.82V70.4ZM205.073 71.3C203.753 71.3 202.693 70.97 201.893 70.31C201.113 69.65 200.723 68.6 200.723 67.16V56.36L198.593 56.06V55.46H200.723V52.97L203.723 52.22V55.46H207.623V56.06L203.723 56.36V67.1C203.723 69.22 204.483 70.28 206.003 70.28C206.323 70.28 206.623 70.23 206.903 70.13C207.203 70.03 207.433 69.93 207.593 69.83C207.773 69.73 207.883 69.66 207.923 69.62L208.313 70.1C207.413 70.9 206.333 71.3 205.073 71.3ZM10.2 112V111.37L12.96 110.92V89.08L10.2 88.66V88H28.26V94.87H27.45L25.14 88.75H16.26V99.55H20.16L21.93 95.2H22.71V104.68H21.93L20.13 100.27H16.26V111.28H25.68L28.14 104.68H28.92V112H10.2ZM46.1011 111.13L48.0211 111.4V112H40.7011V111.4L42.5011 111.1L38.3611 105.43L33.9511 110.71L36.3811 111.4V112H31.0111V111.4L33.0211 110.65L37.8811 104.74L32.4811 97.33L30.6511 97.06V96.46H37.9711V97.06L36.0811 97.39L39.8311 102.52L43.8511 97.78L41.4811 97.09V96.49H47.0011V97.09L44.8111 97.87L40.3111 103.21L46.1011 111.13ZM56.0873 112.3C54.6473 112.3 53.3373 111.97 52.1573 111.31C50.9773 110.63 50.0373 109.68 49.3373 108.46C48.6573 107.22 48.3173 105.81 48.3173 104.23C48.3173 102.57 48.6773 101.13 49.3973 99.91C50.1373 98.69 51.0973 97.77 52.2773 97.15C53.4573 96.51 54.7273 96.19 56.0873 96.19C57.2273 96.19 58.2673 96.39 59.2073 96.79C60.1473 97.17 60.8873 97.71 61.4273 98.41C61.9873 99.11 62.2673 99.9 62.2673 100.78C62.2673 101.44 62.0973 101.95 61.7573 102.31C61.4173 102.65 60.9673 102.82 60.4073 102.82C59.8673 102.82 59.4173 102.64 59.0573 102.28C58.6973 101.92 58.5173 101.47 58.5173 100.93C58.8173 100.73 59.0273 100.51 59.1473 100.27C59.2673 100.03 59.3273 99.73 59.3273 99.37C59.3273 98.63 59.0273 98.03 58.4273 97.57C57.8473 97.09 57.0673 96.85 56.0873 96.85C54.6473 96.85 53.5373 97.37 52.7573 98.41C51.9973 99.43 51.6173 100.87 51.6173 102.73V105.73C51.6173 107.51 51.9873 108.94 52.7273 110.02C53.4873 111.1 54.6073 111.64 56.0873 111.64C57.4473 111.64 58.6273 111.26 59.6273 110.5C60.6473 109.72 61.2773 108.7 61.5173 107.44H62.2073C61.9273 108.92 61.2273 110.1 60.1073 110.98C59.0073 111.86 57.6673 112.3 56.0873 112.3ZM64.0636 111.4L66.1636 111.1V88.9L64.0636 88.6V88H69.1636V99.7C69.9036 98.62 70.7736 97.77 71.7736 97.15C72.7736 96.51 73.8536 96.19 75.0136 96.19C76.4536 96.19 77.5836 96.55 78.4036 97.27C79.2436 97.99 79.6636 99.06 79.6636 100.48V111.1L81.7636 111.4V112H74.8636V111.4L76.6636 111.1V100.54C76.6636 99.5 76.4536 98.7 76.0336 98.14C75.6136 97.56 74.9636 97.27 74.0836 97.27C73.1636 97.27 72.2736 97.61 71.4136 98.29C70.5736 98.95 69.8236 99.77 69.1636 100.75V111.1L70.9636 111.4V112H64.0636V111.4ZM88.0608 112.3C86.7808 112.3 85.7308 111.97 84.9108 111.31C84.0908 110.63 83.6808 109.63 83.6808 108.31C83.6808 106.43 84.4708 105.1 86.0508 104.32C87.6308 103.52 89.4608 103.12 91.5408 103.12H93.5508V100.81C93.5508 99.77 93.4308 98.97 93.1908 98.41C92.9708 97.83 92.6208 97.43 92.1408 97.21C91.6608 96.97 91.0108 96.85 90.1908 96.85C89.2508 96.85 88.5508 97.04 88.0908 97.42C87.6308 97.78 87.4008 98.27 87.4008 98.89C87.4008 99.47 87.6808 99.85 88.2408 100.03C88.2408 100.53 88.0508 100.97 87.6708 101.35C87.2908 101.73 86.8408 101.92 86.3208 101.92C85.7608 101.92 85.3108 101.77 84.9708 101.47C84.6308 101.15 84.4608 100.67 84.4608 100.03C84.4608 98.87 85.0408 97.94 86.2008 97.24C87.3608 96.54 88.8108 96.19 90.5508 96.19C94.5508 96.19 96.5508 97.93 96.5508 101.41V109.99C96.5508 110.43 96.6408 110.77 96.8208 111.01C97.0208 111.23 97.3008 111.34 97.6608 111.34C98.0008 111.34 98.2708 111.23 98.4708 111.01C98.6708 110.77 98.7708 110.45 98.7708 110.05H99.4008C99.4008 110.75 99.1708 111.3 98.7108 111.7C98.2708 112.1 97.6508 112.3 96.8508 112.3C95.9308 112.3 95.1508 112.04 94.5108 111.52C93.8908 110.98 93.5708 110.15 93.5508 109.03C93.0708 110.05 92.3308 110.85 91.3308 111.43C90.3508 112.01 89.2608 112.3 88.0608 112.3ZM89.7108 110.98C90.2508 110.98 90.8008 110.82 91.3608 110.5C91.9408 110.18 92.4308 109.72 92.8308 109.12C93.2308 108.5 93.4708 107.76 93.5508 106.9V103.78H91.5408C89.9008 103.78 88.6708 104.15 87.8508 104.89C87.0508 105.61 86.6508 106.63 86.6508 107.95C86.6508 109.05 86.9108 109.83 87.4308 110.29C87.9508 110.75 88.7108 110.98 89.7108 110.98ZM100.132 111.4L102.232 111.1V97.36L100.132 97.06V96.46H105.232V99.7C105.972 98.62 106.842 97.77 107.842 97.15C108.842 96.51 109.922 96.19 111.082 96.19C112.522 96.19 113.652 96.55 114.472 97.27C115.312 97.99 115.732 99.06 115.732 100.48V111.1L117.832 111.4V112H110.932V111.4L112.732 111.1V100.54C112.732 99.5 112.522 98.7 112.102 98.14C111.682 97.56 111.032 97.27 110.152 97.27C109.232 97.27 108.342 97.61 107.482 98.29C106.642 98.95 105.892 99.77 105.232 100.75V111.1L107.032 111.4V112H100.132V111.4ZM134.565 95.05C134.565 95.83 134.275 96.5 133.695 97.06C133.115 97.62 132.195 97.98 130.935 98.14C131.455 98.9 131.715 99.94 131.715 101.26C131.715 102.82 131.155 104.05 130.035 104.95C128.935 105.85 127.535 106.3 125.835 106.3C125.135 106.3 124.495 106.24 123.915 106.12C122.635 106.2 121.995 106.7 121.995 107.62C121.995 108.14 122.205 108.52 122.625 108.76C123.065 109 123.755 109.12 124.695 109.12H128.055C129.675 109.12 130.875 109.45 131.655 110.11C132.455 110.77 132.855 111.9 132.855 113.5C132.855 114.62 132.565 115.65 131.985 116.59C131.425 117.53 130.605 118.27 129.525 118.81C128.445 119.37 127.155 119.65 125.655 119.65C123.395 119.65 121.725 119.31 120.645 118.63C119.585 117.95 119.055 117.05 119.055 115.93C119.055 115.25 119.315 114.65 119.835 114.13C120.355 113.61 121.065 113.35 121.965 113.35C122.145 113.35 122.515 113.39 123.075 113.47C122.455 114.13 122.145 114.91 122.145 115.81C122.145 116.67 122.445 117.42 123.045 118.06C123.645 118.7 124.625 119.02 125.985 119.02C127.165 119.02 128.215 118.79 129.135 118.33C130.075 117.89 130.795 117.31 131.295 116.59C131.795 115.87 132.045 115.13 132.045 114.37C132.045 113.53 131.775 112.92 131.235 112.54C130.695 112.18 129.735 112 128.355 112H124.695C123.295 112 122.235 111.73 121.515 111.19C120.815 110.63 120.465 109.81 120.465 108.73C120.465 108.01 120.665 107.38 121.065 106.84C121.485 106.28 122.015 105.92 122.655 105.76C120.915 105.02 120.045 103.52 120.045 101.26C120.045 99.68 120.595 98.44 121.695 97.54C122.795 96.64 124.175 96.19 125.835 96.19C127.935 96.19 129.455 96.63 130.395 97.51C130.955 97.41 131.375 97.23 131.655 96.97C131.935 96.69 132.075 96.38 132.075 96.04C132.075 95.72 131.985 95.48 131.805 95.32C131.625 95.14 131.415 95.05 131.175 95.05C131.175 94.61 131.335 94.23 131.655 93.91C131.995 93.57 132.395 93.4 132.855 93.4C133.355 93.4 133.765 93.55 134.085 93.85C134.405 94.15 134.565 94.55 134.565 95.05ZM128.895 100.51C128.895 99.29 128.635 98.35 128.115 97.69C127.615 97.03 126.855 96.7 125.835 96.7C123.855 96.7 122.865 97.97 122.865 100.51V101.98C122.865 103.16 123.105 104.09 123.585 104.77C124.085 105.45 124.835 105.79 125.835 105.79C126.855 105.79 127.615 105.45 128.115 104.77C128.635 104.09 128.895 103.16 128.895 101.98V100.51ZM143.337 112.3C141.857 112.3 140.517 111.97 139.317 111.31C138.117 110.63 137.167 109.68 136.467 108.46C135.767 107.24 135.417 105.83 135.417 104.23C135.417 102.63 135.757 101.23 136.437 100.03C137.137 98.81 138.067 97.87 139.227 97.21C140.407 96.53 141.717 96.19 143.157 96.19C144.417 96.19 145.547 96.47 146.547 97.03C147.547 97.59 148.327 98.37 148.887 99.37C149.447 100.35 149.737 101.48 149.757 102.76H138.717V105.73C138.717 107.49 139.107 108.92 139.887 110.02C140.687 111.1 141.837 111.64 143.337 111.64C144.717 111.64 145.937 111.25 146.997 110.47C148.057 109.69 148.707 108.68 148.947 107.44H149.637C149.357 108.92 148.647 110.1 147.507 110.98C146.367 111.86 144.977 112.3 143.337 112.3ZM146.457 102.01C146.457 100.27 146.187 98.98 145.647 98.14C145.107 97.28 144.267 96.85 143.127 96.85C141.787 96.85 140.747 97.32 140.007 98.26C139.267 99.2 138.847 100.45 138.747 102.01H146.457Z" fill="white"/>
<line x1="1" y1="4.37113e-08" x2="0.999995" y2="124" stroke="white" stroke-width="2"/>
</svg>
